<?xml version="1.0" encoding="UTF-8" standalone="no"?>
<svg
   xmlns:dc="http://purl.org/dc/elements/1.1/"
   xmlns:cc="http://creativecommons.org/ns#"
   xmlns:rdf="http://www.w3.org/1999/02/22-rdf-syntax-ns#"
   xmlns:svg="http://www.w3.org/2000/svg"
   xmlns="http://www.w3.org/2000/svg"
   id="svg152"
   version="1.1"
   viewBox="0 0 264.58334 264.43982"
   height="264.43982mm"
   width="264.58334mm">
  <defs
     id="defs146" />
  <metadata
     id="metadata149">
    <rdf:RDF>
      <cc:Work
         rdf:about="">
        <dc:format>image/svg+xml</dc:format>
        <dc:type
           rdf:resource="http://purl.org/dc/dcmitype/StillImage" />
        <dc:title></dc:title>
      </cc:Work>
    </rdf:RDF>
  </metadata>
  <g
     transform="translate(-52.817259,162.38274)"
     id="layer1">
    <g
       transform="matrix(2.87029,0,0,2.87029,-1.8904684,-302.13716)"
       id="g133">
      <path
         d="m 52.5,75.6 c -1.14,-1.13 -2.2,-1.1 -3.47,0.17 l -2.38,2.39 c -1.27,1.27 -1.3,2.33 -0.17,3.46 l 2.73,2.73 c 1.13,1.13 2.19,1.1 3.46,-0.17 l 2.38,-2.39 c 1.27,-1.26 1.31,-2.33 0.17,-3.46 z M 66.71,61.39 c -1.13,-1.13 -2.2,-1.1 -3.47,0.17 l -2.39,2.39 c -1.27,1.27 -1.3,2.33 -0.17,3.46 l 2.72,2.73 c 1.13,1.14 2.19,1.1 3.47,-0.17 l 2.38,-2.39 c 1.26,-1.27 1.3,-2.34 0.17,-3.46 z"
         id="path119" />
      <path
         d="M 108.42,88.85 71.07,51.51 C 67.31,47.75 63,47.75 59.24,51.51 L 21.88,88.85 c -3.76,3.76 -3.76,8.07 0,11.83 L 59.23,138 c 3.76,3.76 8.07,3.76 11.83,0 l 37.36,-37.35 c 3.76,-3.73 3.76,-8.04 0,-11.8 z M 47,96.13 C 46.165177,96.999637 44.756466,96.938592 44,96 l -6,-6 c -1.13,-1.14 -2.2,-1.1 -3.46,0.17 l -2.39,2.38 c -1.27,1.27 -1.31,2.33 -0.17,3.46 l 6,6 c 1.993333,1.95333 -0.936667,4.94333 -2.93,2.99 l -6,-6 c -2.82,-2.81 -2.87,-6.19 0.29,-9.35 l 2.25,-2.24 c 3.16,-3.16 6.53,-3.1 9.35,-0.29 l 6,6 c 0.926576,0.778527 0.954815,2.195166 0.06,3.01 z m 10.92,-11.34 -2.4,2.4 c -0.556317,0.643659 -1.279561,1.121207 -2.09,1.38 l 2.09,2.09 c 0.93012,0.765761 0.977062,2.173999 0.1,3 -0.823049,0.879568 -2.231157,0.837325 -3,-0.09 L 43.49,84.5 c -2.81,-2.82 -2.86,-6.19 0.3,-9.35 L 46,72.9 c 3.15,-3.16 6.53,-3.11 9.34,-0.29 l 2.84,2.83 c 2.82,2.82 2.91,6.19 -0.26,9.35 z m 14.2,-14.2 -2.25,2.25 C 66.72,76 63.33,75.95 60.52,73.13 L 57.7,70.29 C 54.89,67.48 54.84,64.1 58,60.94 l 2.25,-2.25 c 3.15,-3.16 6.54,-3.11 9.35,-0.29 l 2.84,2.83 c 2.8,2.82 2.85,6.2 -0.31,9.36 z"
         id="path121" />
    </g>
  </g>
</svg>
